# xmcd CD database file
#
# Track frame offsets:
#	150
#	23490
#	45808
#	62520
#	79718
#	94902
#	106765
#	121532
#	135619
#	152896
#	169044
#	188301
#	202286
#
# Disc length: 2952 seconds
#
# Revision: 0
# Processed by: cddbd v1.5.2PL0 Copyright (c) Steve Scherf et al.
# Submitted via: CDex 1.51
#
DISCID=920b860d
DTITLE=Eric Clapton - Legends a Tribute
DYEAR=1900
DGENRE=Blues
TTITLE0=Layla
TTITLE1=Lay Down Sally (Vocal)
TTITLE2=Swing Low Sweet Chariot
TTITLE3=Wonderful Tonight
TTITLE4=Tears In Heaven
TTITLE5=Badge
TTITLE6=I Feel Free
TTITLE7=Promises
TTITLE8=Knocking On Heaven's Door
TTITLE9=I Shot The Sheriff
TTITLE10=All Our Past Times
TTITLE11=Cocaine
TTITLE12=White Rooms
EXTD=
EXTT0=
EXTT1=
EXTT2=
EXTT3=
EXTT4=
EXTT5=
EXTT6=
EXTT7=
EXTT8=
EXTT9=
EXTT10=
EXTT11=
EXTT12=
PLAYORDER=
